:SAMPLES-PER-SECOND 30
:FULLY-SPECIFIED
:DEGREES
458
root  91.7813 38.6877 -1.04572 -83.4831 -86.0064 82.5212
RightUpLeg  -0.902318 -12.0081 -3.91391
RightLeg  17.0049 -8.90023 -1.01547
RightFoot  -14.3132 -0.0683173 1.10709
RightToes  -4.65663e-010 0 -3.6325e-017
Spine  7.90045 1.7223 9.46017
Spine1  2.75273 3.36715 -4.12291
HEad  -1.91062 -39.7888 -7.60444
LeftShoulder1  -0.600318 5.03077 -33.1611
LeftArm  9.66509 10.0459 -39.5032
LeftForeArm  18.9318 -27.8924 -4.99235
LeftHand  -0.0341871 5.61131 -0.141437
RightShoulder  -0.838962 -5.87323 28.8092
RightArm  18.8677 6.54298 49.9414
RightForeArm  13.0056 9.79887 8.42026
RightHand  -0.234296 5.48912 -2.8237
LeftUpLeg  -19.5723 -2.26319 -1.24729
LeftLeg  27.3352 -3.02077 -1.36458
LeftFoot  -3.98744 0.261287 -3.73574
LeftToes  8.74931e-010 -1.05764e-010 1.2659e-011
459
root  91.4539 38.7321 -1.17855 -85.8323 -85.4727 84.7039
RightUpLeg  0.234233 -12.0716 -4.49907
RightLeg  16.1553 -8.52167 -0.836051
RightFoot  -14.4691 -0.0716399 0.959631
RightToes  -4.65663e-010 0 -3.6325e-017
Spine  7.80441 1.96559 9.35757
Spine1  2.85525 3.85282 -5.5148
HEad  -1.53073 -40.521 -8.07699
LeftShoulder1  -0.609318 5.05711 -33.0715
LeftArm  8.77933 10.1788 -39.5441
LeftForeArm  19.4727 -28.4537 -5.09178
LeftHand  -0.0288865 5.48959 0.0327554
RightShoulder  -0.846024 -5.90084 28.6905
RightArm  19.8406 8.30154 50.9206
RightForeArm  10.6684 11.8669 7.82698
RightHand  -0.225229 4.77177 -2.86777
LeftUpLeg  -19.9648 -1.25839 -1.85604
LeftLeg  24.9998 -3.04412 -1.23435
LeftFoot  -4.17568 0.303429 -4.40252
LeftToes  8.74931e-010 -1.05764e-010 1.2659e-011
460
root  91.1009 38.7122 -1.22668 -81.3575 -85.2235 80.3521
RightUpLeg  0.894213 -12.1368 -4.76483
RightLeg  15.8597 -8.58367 -0.804166
RightFoot  -14.8941 -0.0645784 1.16878
RightToes  -4.65663e-010 0 -3.6325e-017
Spine  7.76704 1.98794 9.58566
Spine1  2.45701 3.96355 -6.36512
HEad  -1.26417 -41.2929 -8.93517
LeftShoulder1  -0.63024 5.09934 -33.3432
LeftArm  8.49328 10.4097 -39.3765
LeftForeArm  19.4028 -28.6669 -5.14481
LeftHand  -0.0254127 5.79898 0.422113
RightShoulder  -0.798677 -5.78676 28.3659
RightArm  21.0185 9.67308 51.4931
RightForeArm  8.08912 14.2593 6.97632
RightHand  -0.127901 5.42214 -1.69246
LeftUpLeg  -20.7511 -1.5701 -2.15896
LeftLeg  22.0296 -2.08933 -0.607422
LeftFoot  -4.43021 0.287505 -4.16299
LeftToes  8.74931e-010 -1.05764e-010 1.2659e-011
461
root  90.7063 38.7302 -1.27175 -74.8497 -84.7423 73.8155
RightUpLeg  2.10616 -12.2414 -5.28084
RightLeg  14.9833 -8.84577 -0.689289
RightFoot  -15.1016 -0.0614264 1.24404
RightToes  -4.65663e-010 0 -3.6325e-017
Spine  7.4782 1.83807 9.43899
Spine1  2.75708 3.9514 -7.31842
HEad  -1.25958 -41.744 -9.30884
LeftShoulder1  -0.643579 5.13343 -33.3322
LeftArm  8.46477 10.5388 -39.5091
LeftForeArm  20.0197 -28.188 -5.00047
LeftHand  -0.0179782 4.12221 -0.598585
RightShoulder  -0.794288 -5.78703 28.1664
RightArm  22.4072 10.9576 52.1059
RightForeArm  6.46442 16.7622 6.03304
RightHand  -0.101331 5.98797 -1.35835
LeftUpLeg  -21.0448 -1.53969 -2.67304
LeftLeg  18.4231 -1.92283 -0.396199
LeftFoot  -4.21484 0.269963 -3.88777
LeftToes  8.74931e-010 -1.05764e-010 1.2659e-011
462
root  90.2546 38.7478 -1.32997 -78.7061 -84.6259 77.9392
RightUpLeg  2.98977 -12.0682 -5.50047
RightLeg  14.0196 -8.51111 -0.545455
RightFoot  -15.2333 -0.0654657 1.10757
RightToes  -4.65663e-010 0 -3.6325e-017
Spine  7.30775 2.14555 8.94233
Spine1  2.59755 4.26411 -7.78655
HEad  -1.20771 -42.1427 -9.7939
LeftShoulder1  -0.62521 5.08217 -33.4582
LeftArm  9.16319 11.0064 -39.5547
LeftForeArm  19.9076 -27.2674 -4.80032
LeftHand  -0.0317833 5.63613 -0.498758
RightShoulder  -0.771291 -5.73606 27.9203
RightArm  23.8192 12.2863 52.4648
RightForeArm  4.46769 18.391 5.5764
RightHand  -0.219856 5.96116 -2.57572
LeftUpLeg  -21.5545 -0.166495 -3.0653
LeftLeg  15.0972 -1.48271 -0.146049
LeftFoot  -4.04713 0.304957 -4.4085
LeftToes  8.74931e-010 -1.05764e-010 1.2659e-011
463
root  89.7533 38.6749 -1.3315 -72.6568 -84.6152 71.8665
RightUpLeg  4.18181 -11.9474 -5.49031
RightLeg  13.5107 -8.9496 -0.563658
RightFoot  -15.8088 -0.0558427 1.30867
RightToes  -4.65663e-010 0 -3.6325e-017
Spine  6.89726 2.19166 8.52587
Spine1  3.1111 4.22605 -7.50785
HEad  -1.36591 -42.6213 -9.79978
LeftShoulder1  -0.487113 4.72909 -33.5998
LeftArm  10.4426 10.9606 -39.9255
LeftForeArm  18.7521 -25.2719 -4.41144
LeftHand  -0.0402938 6.40587 -0.566021
RightShoulder  -0.766063 -5.74009 27.6221
RightArm  25.1246 13.3736 52.4036
RightForeArm  3.22717 20.1746 5.10717
RightHand  -0.262616 6.18108 -2.96974
LeftUpLeg  -21.9236 0.370397 -3.38608
LeftLeg  12.4381 -0.536822 0.0958116
LeftFoot  -3.86583 0.306447 -4.33629
LeftToes  8.74931e-010 -1.05764e-010 1.2659e-011
464
root  89.1874 38.6186 -1.3276 -70.942 -84.6163 70.3523
RightUpLeg  5.2592 -11.6537 -5.45177
RightLeg  12.8245 -9.20757 -0.665052
RightFoot  -16.3403 -0.0348469 1.73651
RightToes  -4.65663e-010 0 -3.6325e-017
Spine  6.60764 2.13333 8.24845
Spine1  3.26603 4.22388 -7.89754
HEad  -1.50363 -42.7591 -9.67438
LeftShoulder1  -0.463184 4.66978 -33.575
LeftArm  11.475 11.7114 -39.9191
LeftForeArm  17.8432 -23.7465 -4.17967
LeftHand  -0.0509995 6.61758 -1.46393
RightShoulder  -0.791538 -5.80542 27.7696
RightArm  26.2036 14.1582 52.3112
RightForeArm  3.30805 21.4063 4.87699
RightHand  -0.216361 6.72813 -2.4142
LeftUpLeg  -22.264 1.31694 -3.65736
LeftLeg  10.218 0.108002 -0.12496
LeftFoot  -3.40202 0.307188 -4.13209
LeftToes  8.74931e-010 -1.05764e-010 1.2659e-011
465
root  88.5104 38.5498 -1.3392 -80.1674 -85.1172 79.7155
RightUpLeg  6.4429 -11.1897 -5.2632
RightLeg  12.1534 -8.43648 -0.728114
RightFoot  -16.8589 -0.0107128 2.14565
RightToes  -4.65663e-010 0 -3.6325e-017
Spine  5.96815 2.58853 7.75787
Spine1  3.80533 4.70279 -7.9119
HEad  -1.45633 -42.6158 -9.20412
LeftShoulder1  -0.445417 4.62944 -33.4209
LeftArm  11.8724 12.3639 -40.0664
LeftForeArm  17.837 -21.6289 -4.41951
LeftHand  -0.0885209 8.83566 -1.25225
RightShoulder  -0.744288 -5.66581 27.7818
RightArm  26.8925 14.3687 52.1797
RightForeArm  3.66164 22.1496 4.78199
RightHand  -0.134455 6.77235 -1.62935
LeftUpLeg  -22.2783 2.71664 -3.37852
LeftLeg  8.73525 1.68306 -0.41256
LeftFoot  -2.92331 0.314501 -4.03346
LeftToes  8.74931e-010 -1.05764e-010 1.2659e-011
466
root  87.759 38.394 -1.25701 -83.8986 -85.4741 83.4486
RightUpLeg  7.8699 -11.2339 -5.45778
RightLeg  11.8169 -7.70631 -0.516314
RightFoot  -17.7386 0.0107701 2.35029
RightToes  -4.65663e-010 0 -3.6325e-017
Spine  5.78635 2.5818 7.82993
Spine1  3.73267 4.76869 -8.29555
HEad  -1.30022 -42.2809 -9.07162
LeftShoulder1  -0.417162 4.56123 -33.3064
LeftArm  9.43104 13.2675 -39.8248
LeftForeArm  21.3552 -18.8151 -5.53116
LeftHand  -0.0760496 8.29425 -1.15175
RightShoulder  -0.724014 -5.60193 27.8513
RightArm  28.317 14.214 52.1383
RightForeArm  3.31672 21.9636 4.83951
RightHand  -0.21092 6.56982 -2.4005
LeftUpLeg  -22.3316 2.89135 -3.31559
LeftLeg  8.57526 3.05266 -0.287521
LeftFoot  -2.52748 0.319855 -3.95525
LeftToes  8.74931e-010 -1.05764e-010 1.2659e-011
467
root  86.8845 38.1776 -1.14254 -85.8133 -85.6537 85.2418
RightUpLeg  9.55233 -11.4546 -5.99191
RightLeg  11.8389 -7.03163 -0.359854
RightFoot  -19.0528 0.0433271 2.54065
RightToes  -4.65663e-010 0 -3.6325e-017
Spine  5.03652 2.43443 7.43464
Spine1  4.43713 4.64468 -8.30858
HEad  -1.35348 -42.0137 -9.07191
LeftShoulder1  -0.435282 4.60649 -33.3322
LeftArm  6.56902 14.3687 -39.1073
LeftForeArm  24.6614 -16.5429 -6.60776
LeftHand  -0.0562922 7.46591 -0.809006
RightShoulder  -0.776468 -5.74447 28.023
RightArm  29.3337 13.9113 52.4457
RightForeArm  3.40049 21.3306 4.94164
RightHand  -0.256476 5.77149 -2.97658
LeftUpLeg  -22.1932 3.07862 -3.64487
LeftLeg  9.77773 2.65689 -0.0676256
LeftFoot  -2.34483 0.302358 -3.64039
LeftToes  8.74931e-010 -1.05764e-010 1.2659e-011
